#N canvas 363 137 450 300 10;
#X obj 98 171 spigot 0;
#X obj 143 147 r \$1;
#X obj 98 193 outlet;
#X obj 96 146 inlet;
#X obj 177 172 spigot 0;
#X obj 222 148 r \$1;
#X obj 177 194 outlet;
#X obj 175 147 inlet;
#X obj 257 174 spigot 0;
#X obj 302 150 r \$1;
#X obj 257 196 outlet;
#X obj 255 149 inlet;
#X obj 341 174 spigot 0;
#X obj 386 150 r \$1;
#X obj 341 196 outlet;
#X obj 339 149 inlet;
#X connect 0 0 2 0;
#X connect 1 0 0 1;
#X connect 3 0 0 0;
#X connect 4 0 6 0;
#X connect 5 0 4 1;
#X connect 7 0 4 0;
#X connect 8 0 10 0;
#X connect 9 0 8 1;
#X connect 11 0 8 0;
#X connect 12 0 14 0;
#X connect 13 0 12 1;
#X connect 15 0 12 0;
