#N canvas 0 92 1351 686 16;
#X msg 697 -88 bang;
#X obj 907 -67 del;
#X msg 1005 -83 stop;
#X obj 1171 307 hsl 128 15 0 3 0 0 empty empty empty -2 -8 0 10 -262144
-1 -1 2117 1;
#X obj 1439 -54 soundfiler;
#X text 1194 281 background;
#X obj 1192 528 dac~;
#X obj 1235 443 *~ 1;
#X obj 1158 444 *~ 1;
#X obj 904 -88 spigot 1;
#X obj 1495 -169 table oac;
#X obj 697 -51 tabplay~ oac;
#X floatatom 1224 347 5 0 0 0 - - -, f 5;
#X obj 1223 216 loadbang;
#X floatatom 636 -119 10 0 0 0 - - -, f 10;
#X obj 637 -145 random 5.65556e+07;
#X obj 1493 -194 table pres;
#X obj 1435 37 soundfiler;
#X obj 637 -172 t b b;
#X obj 636 -204 bng 15 250 50 0 empty empty empty 17 7 0 10 -262144
-1 -1;
#X msg 1055 -145 bang;
#X obj 834 -242 t b b;
#X obj 815 -272 bng 15 250 50 0 empty empty empty 17 7 0 10 -262144
-1 -1;
#X obj 1054 -113 tabplay~ pres;
#X obj 833 -212 del 60000;
#X obj 1107 -300 inlet;
#X obj 1107 -272 sel 0 1;
#X msg 1107 -244 stop;
#X msg 1440 -77 read -maxsize 1e+08 -resize ../sounds/oae.wav oac;
#X msg 1436 14 read -maxsize 1e+08 -resize ../sounds/presentacion.wav
pres;
#X msg 1221 248 0.5;
#X obj 1439 -26 t b;
#X obj 1435 65 s loaded6;
#X obj 1439 -98 loadbang;
#X connect 0 0 11 0;
#X connect 1 0 0 0;
#X connect 2 0 11 0;
#X connect 3 0 7 1;
#X connect 3 0 8 1;
#X connect 3 0 12 0;
#X connect 4 0 31 0;
#X connect 7 0 6 1;
#X connect 8 0 6 0;
#X connect 9 0 1 0;
#X connect 11 0 8 0;
#X connect 11 0 7 0;
#X connect 11 1 9 0;
#X connect 13 0 30 0;
#X connect 14 0 11 0;
#X connect 15 0 14 0;
#X connect 17 0 32 0;
#X connect 18 0 15 0;
#X connect 18 1 0 0;
#X connect 19 0 18 0;
#X connect 20 0 23 0;
#X connect 21 0 24 0;
#X connect 21 1 20 0;
#X connect 22 0 21 0;
#X connect 23 0 8 0;
#X connect 23 0 7 0;
#X connect 24 0 19 0;
#X connect 25 0 26 0;
#X connect 26 0 27 0;
#X connect 26 1 22 0;
#X connect 27 0 11 0;
#X connect 27 0 23 0;
#X connect 28 0 4 0;
#X connect 29 0 17 0;
#X connect 30 0 3 0;
#X connect 31 0 29 0;
#X connect 33 0 28 0;
