#N canvas 332 87 918 686 10;
#X obj -2063 -252 inlet;
#X obj -2051 188 hsl 128 15 0 3 0 0 empty empty empty -2 -8 0 10 -262144
-1 -1 4233 1;
#X text -2028 162 background;
#X obj -2030 409 dac~;
#X floatatom -1998 228 5 0 0 0 - - -, f 5;
#X obj -1999 97 loadbang;
#X obj -2032 -206 sel 0 1;
#X obj -1940 -235 tgl 15 0 empty empty empty 17 7 0 10 -262144 -1 -1
0 1;
#X obj -2061 -228 t f f;
#X obj -1970 -96 tgl 15 0 empty empty empty 17 7 0 10 -262144 -1 -1
0 1;
#X obj -1804 -55 drones;
#X obj -1995 12 del 5000;
#X obj -2064 325 *~ 1.5;
#X obj -1987 324 *~ 1.5;
#X msg -2000 127 1;
#X msg -2121 -107 0;
#X msg -2082 -115 1;
#X obj -2071 -160 t b b;
#X obj -2109 -20 readsf~;
#X obj -1592 3 tgl 15 0 empty empty empty 17 7 0 10 -262144 -1 -1 0
1;
#X obj -1617 111 del 5000;
#X msg -1743 -8 0;
#X msg -1704 -16 1;
#X obj -1693 -61 t b b;
#X obj -1731 79 readsf~;
#X msg -1676 -20 open ../sounds/nihilin.wav;
#X msg -2054 -119 open ../sounds/amman.wav;
#X obj -1852 326 *~ 0.5;
#X obj -1775 325 *~ 0.5;
#X connect 0 0 8 0;
#X connect 1 0 4 0;
#X connect 1 0 12 1;
#X connect 1 0 13 1;
#X connect 5 0 14 0;
#X connect 6 0 15 0;
#X connect 6 0 21 0;
#X connect 6 1 17 0;
#X connect 6 1 23 0;
#X connect 7 0 8 0;
#X connect 8 0 9 0;
#X connect 8 1 6 0;
#X connect 9 0 10 0;
#X connect 11 0 17 0;
#X connect 12 0 3 0;
#X connect 13 0 3 1;
#X connect 14 0 1 0;
#X connect 15 0 18 0;
#X connect 16 0 18 0;
#X connect 17 0 16 0;
#X connect 17 1 26 0;
#X connect 18 0 12 0;
#X connect 18 0 13 0;
#X connect 18 1 11 0;
#X connect 20 0 23 0;
#X connect 21 0 24 0;
#X connect 22 0 24 0;
#X connect 23 0 22 0;
#X connect 23 1 25 0;
#X connect 24 0 27 0;
#X connect 24 0 28 0;
#X connect 24 1 20 0;
#X connect 25 0 24 0;
#X connect 26 0 18 0;
#X connect 27 0 3 0;
#X connect 28 0 3 1;
