#N canvas 0 82 1351 686 10;
#X obj 116 394 phasor~ 616;
#X obj 131 303 osc~ 2.9;
#X obj 175 349 *~;
#X obj 218 303 sig~ 1;
#X obj 218 394 *~;
#X obj 175 440 *~;
#X obj 131 485 +~;
#X obj 480 167 osc~ 396;
#X obj 436 212 +~;
#X obj 393 167 sig~ 0;
#X obj 436 258 *~ 0.5;
#X obj 524 258 osc~ 2.4;
#X obj 480 303 *~;
#X obj 436 349 *~;
#X obj 524 349 osc~ 3.6;
#X obj 480 394 *~;
#X obj 698 349 noise~;
#X obj 742 303 osc~ 6.9;
#X obj 829 303 osc~ 1.8;
#X obj 785 349 *~;
#X obj 742 394 *~;
#X obj 611 440 +~;
#X obj 785 440 osc~ 8.7;
#X obj 873 440 osc~ 0.7;
#X obj 829 485 *~;
#X obj 720 531 *~;
#X obj 425 576 +~;
#X obj 425 667 dac~;
#X obj 423 614 *~ 0.5;
#X obj 608 485 *~ 0.5;
#X obj 855 213 osc~ 616;
#X obj 903 213 osc~ 9.1;
#X obj 879 255 *~;
#X obj 974 171 osc~ 88;
#X obj 1021 171 osc~ 132;
#X obj 998 213 *~;
#X obj 1045 213 osc~ 1.1;
#X obj 1021 255 *~;
#X obj 950 296 *~;
#X obj 1140 88 phasor~ 264;
#X obj 1116 130 +~;
#X obj 1116 171 *~ 0.5;
#X obj 1211 130 osc~ 6.2;
#X obj 1235 88 osc~ 1.3;
#X obj 1282 88 osc~ 5.6;
#X obj 1258 130 *~;
#X obj 1235 171 *~;
#X obj 1175 213 *~;
#X obj 1223 213 phasor~ 396;
#X obj 1199 255 *~;
#X obj 1365 213 osc~ 0.9;
#X obj 1341 255 *~;
#X obj 1318 213 sig~ 1;
#X obj 1270 296 *~;
#X obj 1110 338 +~;
#X obj 1110 380 *~ 0.5;
#X obj 1365 296 osc~ 3.8;
#X obj 1389 338 *~;
#X obj 1412 296 sig~ 1;
#X obj 1555 296 osc~ 1.7;
#X obj 1531 338 *~;
#X obj 1507 296 sig~ 1;
#X obj 1460 380 *~;
#X obj 1285 422 *~;
#X obj 1555 380 osc~ 132;
#X obj 1602 380 osc~ 9;
#X obj 1578 422 *~;
#X obj 1432 463 +~;
#X obj 1432 505 *~ 0.5;
#X obj 1673 422 osc~ 9.8;
#X obj 1697 463 *~;
#X obj 1721 422 sig~ 1;
#X obj 1673 505 *~;
#X obj 1649 463 sig~ 1;
#X obj 1552 547 *~;
#X obj 1092 89 sig~ 0;
#X obj 120 594 dac~;
#X obj 260 352 osc~ 0.7;
#X obj 742 797 hsl 128 15 0 3 0 0 empty empty empty -2 -8 0 10 -262144
-1 -1 2540 1;
#X text 765 771 background;
#X obj 794 706 loadbang;
#X obj 1516 694 dac~;
#X obj 1514 641 *~ 0.5;
#X obj 135 537 *~ 0;
#X msg 805 641 0;
#X obj 819 557 inlet;
#X obj 819 579 sel 0 1;
#X msg 791 736 0;
#X floatatom 180 239 5 0 0 0 - - -, f 5;
#X obj 393 303 sig~ 6;
#X msg 852 633 0.6;
#X connect 0 0 5 0;
#X connect 1 0 2 0;
#X connect 2 0 4 0;
#X connect 3 0 2 1;
#X connect 4 0 5 1;
#X connect 5 0 6 1;
#X connect 6 0 83 0;
#X connect 7 0 8 1;
#X connect 8 0 10 0;
#X connect 9 0 8 0;
#X connect 10 0 12 0;
#X connect 11 0 12 1;
#X connect 12 0 13 1;
#X connect 13 0 15 0;
#X connect 14 0 15 1;
#X connect 15 0 21 0;
#X connect 16 0 20 0;
#X connect 17 0 19 0;
#X connect 18 0 19 1;
#X connect 19 0 20 1;
#X connect 20 0 22 0;
#X connect 21 0 29 0;
#X connect 22 0 24 0;
#X connect 23 0 24 1;
#X connect 24 0 25 1;
#X connect 25 0 26 1;
#X connect 26 0 28 0;
#X connect 28 0 27 0;
#X connect 28 0 27 1;
#X connect 29 0 25 0;
#X connect 30 0 32 0;
#X connect 31 0 32 1;
#X connect 32 0 38 0;
#X connect 33 0 35 0;
#X connect 34 0 35 1;
#X connect 35 0 37 0;
#X connect 36 0 37 1;
#X connect 37 0 38 1;
#X connect 38 0 54 0;
#X connect 39 0 40 1;
#X connect 40 0 41 0;
#X connect 41 0 47 0;
#X connect 42 0 46 0;
#X connect 43 0 45 0;
#X connect 44 0 45 1;
#X connect 45 0 46 1;
#X connect 46 0 47 1;
#X connect 47 0 49 0;
#X connect 48 0 49 1;
#X connect 49 0 53 0;
#X connect 50 0 51 1;
#X connect 51 0 53 1;
#X connect 52 0 51 0;
#X connect 53 0 54 1;
#X connect 54 0 55 0;
#X connect 55 0 63 0;
#X connect 56 0 57 0;
#X connect 57 0 62 0;
#X connect 58 0 57 1;
#X connect 59 0 60 1;
#X connect 60 0 62 1;
#X connect 61 0 60 0;
#X connect 62 0 63 1;
#X connect 63 0 67 0;
#X connect 64 0 66 0;
#X connect 65 0 66 1;
#X connect 66 0 67 1;
#X connect 67 0 68 0;
#X connect 68 0 74 0;
#X connect 69 0 70 0;
#X connect 70 0 72 1;
#X connect 71 0 70 1;
#X connect 72 0 74 1;
#X connect 73 0 72 0;
#X connect 74 0 82 0;
#X connect 75 0 40 0;
#X connect 77 0 4 1;
#X connect 78 0 28 1;
#X connect 78 0 82 1;
#X connect 80 0 87 0;
#X connect 82 0 81 0;
#X connect 82 0 81 1;
#X connect 83 0 76 0;
#X connect 83 0 76 1;
#X connect 84 0 78 0;
#X connect 85 0 86 0;
#X connect 86 0 84 0;
#X connect 86 1 90 0;
#X connect 87 0 78 0;
#X connect 88 0 89 0;
#X connect 89 0 13 0;
#X connect 90 0 78 0;
