#N canvas 0 107 1351 686 10;
#X obj 917 13 del;
#X obj 852 -238 inlet;
#X obj 1061 -60 hsl 128 15 0 3 0 0 empty empty empty -2 -8 0 10 -262144
-1 -1 0 1;
#X text 1084 -86 background;
#X obj 891 157 dac~;
#X obj 914 -8 spigot 1;
#X obj 853 -199 tgl 15 0 empty empty empty 17 7 0 10 -262144 -1 -1
1 1;
#X obj 857 -175 sel 0 1;
#X obj 732 -206 line;
#X msg 732 -228 0 0;
#X text 333 -229 CloudsAlias is made by Martin Brikmann;
#X text 333 -214 downloaded from http://www.martin-brinkmann.de/pd-patches.html
;
#X obj 733 -171 / 100;
#X obj 417 -154 sinecyclesfm;
#X obj 924 -209 loadbang;
#X msg 924 -187 0;
#X obj 815 100 *~ 1;
#X obj 893 99 *~ 1;
#X msg 762 -229 70 2000;
#X obj 876 -144 t b b;
#X msg 867 -121 1;
#X msg 814 -130 0;
#X obj 859 -31 readsf~;
#X msg 903 -114 open ../sounds/ulises.wav ulises;
#X connect 0 0 19 0;
#X connect 1 0 6 0;
#X connect 2 0 16 1;
#X connect 2 0 17 1;
#X connect 5 0 0 0;
#X connect 6 0 7 0;
#X connect 7 0 21 0;
#X connect 7 0 9 0;
#X connect 7 1 18 0;
#X connect 7 1 19 0;
#X connect 8 0 12 0;
#X connect 9 0 8 0;
#X connect 12 0 13 0;
#X connect 14 0 15 0;
#X connect 15 0 6 0;
#X connect 16 0 4 0;
#X connect 17 0 4 1;
#X connect 18 0 8 0;
#X connect 19 0 20 0;
#X connect 19 1 23 0;
#X connect 20 0 22 0;
#X connect 21 0 22 0;
#X connect 22 0 16 0;
#X connect 22 0 17 0;
#X connect 22 1 5 0;
#X connect 23 0 22 0;
