#N canvas 12 87 1351 686 10;
#X obj 917 13 del;
#X obj 852 -238 inlet;
#X obj 1061 -60 hsl 128 15 0 3 0 0 empty empty empty -2 -8 0 10 -262144
-1 -1 0 1;
#X text 1084 -86 background;
#X obj 891 157 dac~;
#X obj 914 -8 spigot 1;
#X obj 853 -199 tgl 15 0 empty empty empty 17 7 0 10 -262144 -1 -1
1 1;
#X obj 853 -173 sel 0 1;
#X obj 732 -206 line;
#X msg 732 -228 0 0;
#X obj 417 -170 cloudsalias;
#X text 333 -229 CloudsAlias is made by Martin Brikmann;
#X text 333 -214 downloaded from http://www.martin-brinkmann.de/pd-patches.html
;
#X obj 733 -171 / 100;
#X obj 815 100 *~ 1.3;
#X obj 892 99 *~ 1.3;
#X msg 762 -229 40 2000;
#X obj 634 -69 loadbang;
#X obj 859 -31 readsf~;
#X msg 900 -122 open ../sounds/sunra.wav sunra;
#X obj 865 -142 t b b;
#X msg 867 -121 1;
#X msg 814 -130 0;
#X connect 0 0 20 0;
#X connect 1 0 6 0;
#X connect 2 0 14 1;
#X connect 2 0 15 1;
#X connect 5 0 0 0;
#X connect 6 0 7 0;
#X connect 7 0 22 0;
#X connect 7 0 9 0;
#X connect 7 1 16 0;
#X connect 7 1 20 0;
#X connect 8 0 13 0;
#X connect 9 0 8 0;
#X connect 13 0 10 0;
#X connect 14 0 4 0;
#X connect 15 0 4 1;
#X connect 16 0 8 0;
#X connect 17 0 9 0;
#X connect 18 0 14 0;
#X connect 18 0 15 0;
#X connect 18 1 5 0;
#X connect 19 0 18 0;
#X connect 20 0 21 0;
#X connect 20 1 19 0;
#X connect 21 0 18 0;
#X connect 22 0 18 0;
