#N canvas 0 92 1113 686 10;
#X obj 277 244 osc~ 88;
#X obj 291 264 osc~ 7.2;
#X obj 278 287 *~;
#N canvas 0 87 1351 686 drone1 0;
#X obj 80 167 osc~ 220;
#X obj 160 167 osc~ 484;
#X obj 120 209 *~;
#X obj 200 209 osc~ 5.8;
#X obj 160 250 *~;
#X obj 120 292 +~;
#X obj 80 250 sig~ 0;
#X obj 120 334 *~ 0.5;
#X obj 200 334 osc~ 0.4;
#X obj 160 375 *~;
#X obj 320 250 osc~ 660;
#X obj 360 292 +~;
#X obj 400 250 sig~ 0;
#X obj 360 334 *~ 0.5;
#X obj 640 250 osc~ 6.4;
#X obj 600 292 *~;
#X obj 558 251 sig~ 1;
#X obj 880 250 osc~ 2.3;
#X obj 840 292 *~;
#X obj 800 250 sig~ 1;
#X obj 720 334 *~;
#X obj 540 375 *~;
#X obj 350 417 +~;
#X obj 350 459 *~ 0.5;
#X obj 430 459 osc~ 1.2;
#X obj 390 501 *~;
#X obj 590 459 osc~ 660;
#X obj 670 459 osc~ 660;
#X obj 630 501 *~;
#X obj 510 542 +~;
#X obj 510 584 *~ 0.5;
#X obj 670 542 osc~ 5.2;
#X obj 750 542 osc~ 0.4;
#X obj 710 584 *~;
#X obj 610 626 *~;
#X obj 610 667 outlet~;
#X floatatom 416 202 5 0 0 0 - - -, f 5;
#X connect 0 0 2 0;
#X connect 1 0 2 1;
#X connect 2 0 4 0;
#X connect 3 0 4 1;
#X connect 4 0 5 1;
#X connect 5 0 7 0;
#X connect 6 0 5 0;
#X connect 7 0 9 0;
#X connect 8 0 9 1;
#X connect 9 0 22 0;
#X connect 10 0 11 0;
#X connect 11 0 13 0;
#X connect 12 0 11 1;
#X connect 13 0 21 0;
#X connect 14 0 15 1;
#X connect 15 0 20 0;
#X connect 16 0 15 0;
#X connect 17 0 18 1;
#X connect 18 0 20 1;
#X connect 19 0 18 0;
#X connect 20 0 21 1;
#X connect 21 0 22 1;
#X connect 22 0 23 0;
#X connect 23 0 25 0;
#X connect 24 0 25 1;
#X connect 25 0 29 0;
#X connect 26 0 28 0;
#X connect 27 0 28 1;
#X connect 28 0 29 1;
#X connect 29 0 30 0;
#X connect 30 0 34 0;
#X connect 31 0 33 0;
#X connect 32 0 33 1;
#X connect 33 0 34 1;
#X connect 34 0 35 0;
#X connect 36 0 0 0;
#X restore 486 246 pd drone1;
#X obj 486 268 *~ 0.5;
#X obj 280 316 *~ 0.5;
#X obj 625 324 osc~ 132;
#X obj 642 181 osc~ 7.6;
#X obj 672 242 osc~ 1.9;
#X obj 656 277 *~;
#X obj 657 207 sig~ 1;
#X obj 642 303 *~;
#X obj 628 350 *~;
#X obj 629 377 *~ 0.5;
#X obj 798 395 phasor~ 44;
#X obj 814 280 phasor~ 528;
#X obj 828 307 phasor~ 44;
#X obj 816 336 +~;
#X obj 817 367 *~ 0.5;
#X obj 803 431 *~;
#X obj 804 463 *~ 0.5;
#X obj 442 123 hsl 128 15 0 1 0 0 empty empty empty -2 -8 0 10 -262144
-1 -1 0 1;
#X obj 628 122 hsl 128 15 0 1 0 0 empty empty empty -2 -8 0 10 -262144
-1 -1 0 1;
#X obj 814 130 hsl 128 15 0 1 0 0 empty empty empty -2 -8 0 10 -262144
-1 -1 0 1;
#X obj 640 69 hsl 128 15 0 1 0 0 empty empty empty -2 -8 0 10 -262144
-1 -1 0 1;
#X obj 619 -113 inlet;
#X obj 621 -6 sel 0 1;
#X msg 621 16 0;
#X msg 621 16;
#X obj 100 69 r \$1-1;
#X obj 117 92 r \$1-2;
#X obj 140 114 r \$1-3;
#X obj 167 140 r \$1-4;
#X floatatom 85 184 10 0 0 0 - - -, f 10;
#X floatatom 192 238 10 0 0 0 - - -, f 10;
#X floatatom 137 201 10 0 0 0 - - -, f 10;
#X floatatom 106 164 10 0 0 0 - - -, f 10;
#X floatatom 279 215 5 0 0 0 - - -, f 5;
#X obj 69 320 mapping/autoscale 10 300;
#X msg 72 290 load 0 360;
#X floatatom 69 342 5 0 0 0 - - -, f 5;
#X obj 333 178 / 10;
#X obj 460 179 hsl 128 15 0 1 0 0 empty empty empty -2 -8 0 10 -262144
-1 -1 0 1;
#X floatatom 643 149 5 0 0 0 - - -, f 5;
#X floatatom 184 451 5 0 0 0 - - -, f 5;
#X msg 187 399 load -90 90;
#X floatatom 589 307 5 0 0 0 - - -, f 5;
#X obj 184 429 mapping/autoscale 5 500;
#X obj 556 569 dac~;
#N canvas 15 82 1351 686 player 1;
#X obj 424 126 del;
#X obj 359 -125 inlet;
#X obj 392 174 hsl 128 15 0 3 0 0 empty empty empty -2 -8 0 10 -262144
-1 -1 0 1;
#X text 415 148 background;
#X obj 434 376 dac~;
#X obj 421 105 spigot 1;
#X obj 360 -86 tgl 15 0 empty empty empty 17 7 0 10 -262144 -1 -1 0
1;
#X obj 360 -60 sel 0 1;
#X obj 379 312 *~ 1;
#X obj 456 310 *~ 1;
#X msg 546 190 1;
#X msg 403 -9 open ../sounds/krysaor.wav krysaor;
#X msg 374 -8 1;
#X msg 321 -17 0;
#X obj 366 81 readsf~;
#X obj 377 -33 t b b;
#X connect 0 0 15 0;
#X connect 1 0 6 0;
#X connect 2 0 8 1;
#X connect 2 0 9 1;
#X connect 5 0 0 0;
#X connect 6 0 7 0;
#X connect 7 0 13 0;
#X connect 7 1 15 0;
#X connect 8 0 4 0;
#X connect 9 0 4 1;
#X connect 10 0 2 0;
#X connect 11 0 14 0;
#X connect 12 0 14 0;
#X connect 13 0 14 0;
#X connect 14 0 8 0;
#X connect 14 0 9 0;
#X connect 14 1 5 0;
#X connect 15 0 12 0;
#X connect 15 1 11 0;
#X restore 559 -6 pd player;
#X obj 408 66 line;
#X msg 413 14 200 60000;
#X msg 646 99 0.9;
#X msg 454 152 0.3, f 4;
#X floatatom 839 253 5 0 0 0 - - -, f 5;
#X obj 444 36 del 60000;
#X obj 415 -16 t b b b;
#X msg 483 -10 0 0;
#X obj 483 -30 bng 15 250 50 0 empty empty empty 17 7 0 10 -262144
-1 -1;
#X obj 840 187 bng 15 250 50 0 empty empty empty 17 7 0 10 -262144
-1 -1;
#X obj 145 239 t b;
#X obj 715 -23 tgl 15 0 empty empty empty 17 7 0 10 -262144 -1 -1 0
1;
#X msg 818 98 0.5;
#X obj 871 169 metro 1000;
#X obj 977 155 tgl 15 0 empty empty empty 17 7 0 10 -262144 -1 -1 0
1;
#X obj 840 229 random 200;
#X obj 829 33 loadbang;
#X msg 752 8 0;
#X connect 0 0 2 0;
#X connect 1 0 2 1;
#X connect 2 0 5 0;
#X connect 3 0 4 0;
#X connect 4 0 48 0;
#X connect 4 0 48 1;
#X connect 5 0 48 0;
#X connect 5 0 48 1;
#X connect 6 0 12 0;
#X connect 7 0 11 0;
#X connect 8 0 9 1;
#X connect 9 0 11 1;
#X connect 10 0 9 0;
#X connect 11 0 12 1;
#X connect 12 0 13 0;
#X connect 13 0 48 1;
#X connect 13 0 48 0;
#X connect 14 0 19 0;
#X connect 15 0 17 0;
#X connect 16 0 17 1;
#X connect 17 0 18 0;
#X connect 18 0 19 1;
#X connect 19 0 20 0;
#X connect 20 0 48 0;
#X connect 20 0 48 1;
#X connect 21 0 5 1;
#X connect 22 0 13 1;
#X connect 23 0 20 1;
#X connect 24 0 21 0;
#X connect 24 0 23 0;
#X connect 24 0 42 0;
#X connect 24 0 22 0;
#X connect 25 0 26 0;
#X connect 25 0 49 0;
#X connect 25 0 63 0;
#X connect 26 0 27 0;
#X connect 26 0 27 0;
#X connect 26 0 57 0;
#X connect 26 1 53 0;
#X connect 26 1 58 0;
#X connect 26 1 52 0;
#X connect 26 1 62 0;
#X connect 27 0 24 0;
#X connect 29 0 33 0;
#X connect 30 0 36 0;
#X connect 31 0 35 0;
#X connect 32 0 34 0;
#X connect 33 0 38 0;
#X connect 34 0 63 1;
#X connect 35 0 60 0;
#X connect 36 0 47 0;
#X connect 37 0 0 0;
#X connect 37 0 41 0;
#X connect 38 0 40 0;
#X connect 39 0 38 0;
#X connect 40 0 37 0;
#X connect 41 0 1 1;
#X connect 42 0 4 1;
#X connect 43 0 7 0;
#X connect 45 0 47 0;
#X connect 46 0 6 0;
#X connect 47 0 44 0;
#X connect 50 0 43 0;
#X connect 51 0 50 0;
#X connect 52 0 22 0;
#X connect 53 0 42 0;
#X connect 54 0 15 0;
#X connect 55 0 56 0;
#X connect 56 0 51 0;
#X connect 56 1 55 0;
#X connect 56 2 57 0;
#X connect 57 0 50 0;
#X connect 58 0 56 0;
#X connect 59 0 65 0;
#X connect 61 0 26 0;
#X connect 61 0 49 0;
#X connect 62 0 23 0;
#X connect 63 0 59 0;
#X connect 64 0 63 0;
#X connect 65 0 54 0;
#X connect 66 0 67 0;
#X connect 67 0 61 0;
