#N canvas 0 92 1351 686 10;
#X obj 493 667 dac~;
#X obj 1110 254 osc~ 440;
#X obj 1168 281 osc~ 9.7;
#X obj 1183 304 osc~ 10;
#X obj 1169 326 *~;
#X obj 1112 338 *~;
#N canvas 0 87 1351 686 drone1 0;
#X obj 202 485 osc~ 572;
#X obj 101 349 osc~ 572;
#X obj 76 394 *~;
#X obj 51 349 sig~ 1;
#X obj 177 303 osc~ 8.5;
#X obj 227 303 osc~ 6.1;
#X obj 202 349 *~;
#X obj 253 349 osc~ 1.2;
#X obj 227 394 *~;
#X obj 152 440 *~;
#X obj 379 394 osc~ 528;
#X obj 354 440 *~;
#X obj 328 394 sig~ 1;
#X obj 253 485 *~;
#X obj 227 531 *~;
#X obj 480 394 osc~ 660;
#X obj 303 258 phasor~ 44;
#X obj 354 167 osc~ 8.8;
#X obj 328 212 *~;
#X obj 303 167 sig~ 1;
#X obj 379 212 osc~ 0.3;
#X obj 354 258 *~;
#X obj 328 303 *~;
#X obj 455 258 osc~ 352;
#X obj 455 167 osc~ 8;
#X obj 480 212 *~;
#X obj 505 167 sig~ 1;
#X obj 531 212 osc~ 7.2;
#X obj 505 258 *~;
#X obj 480 303 *~;
#X obj 404 349 *~;
#X obj 657 258 osc~ 1.1;
#X obj 632 303 *~;
#X obj 606 258 sig~ 1;
#X obj 682 303 osc~ 9.9;
#X obj 657 349 *~;
#X obj 531 394 *~;
#X obj 505 440 *~;
#X obj 733 394 osc~ 308;
#X obj 758 349 osc~ 9.6;
#X obj 783 394 *~;
#X obj 808 349 sig~ 1;
#X obj 758 440 *~;
#X obj 632 485 *~;
#X obj 859 440 osc~ 9.2;
#X obj 909 440 osc~ 8.1;
#X obj 884 485 *~;
#X obj 758 531 *~;
#X obj 493 576 +~;
#X obj 493 622 *~ 0.5;
#X obj 491 649 outlet~;
#X floatatom 321 108 5 0 0 0 - - -, f 5;
#X floatatom 391 137 5 0 0 0 - - -, f 5;
#X floatatom 92 291 5 0 0 0 - - -, f 5;
#X floatatom 130 326 5 0 0 0 - - -, f 5;
#X floatatom 101 529 5 0 0 0 - - -, f 5;
#X obj 103 498 inlet;
#X floatatom 445 227 5 0 0 0 - - -, f 5;
#X obj 446 198 inlet;
#X connect 0 0 14 0;
#X connect 1 0 2 1;
#X connect 2 0 9 0;
#X connect 3 0 2 0;
#X connect 4 0 6 0;
#X connect 5 0 6 1;
#X connect 6 0 8 0;
#X connect 7 0 8 1;
#X connect 8 0 9 1;
#X connect 9 0 13 0;
#X connect 10 0 11 1;
#X connect 11 0 13 1;
#X connect 12 0 11 0;
#X connect 13 0 14 1;
#X connect 14 0 48 0;
#X connect 15 0 37 0;
#X connect 16 0 22 0;
#X connect 17 0 18 1;
#X connect 18 0 21 0;
#X connect 19 0 18 0;
#X connect 20 0 21 1;
#X connect 21 0 22 1;
#X connect 22 0 30 0;
#X connect 23 0 29 0;
#X connect 24 0 25 0;
#X connect 25 0 28 0;
#X connect 26 0 25 1;
#X connect 27 0 28 1;
#X connect 28 0 29 1;
#X connect 29 0 30 1;
#X connect 30 0 36 0;
#X connect 31 0 32 1;
#X connect 32 0 35 0;
#X connect 33 0 32 0;
#X connect 34 0 35 1;
#X connect 35 0 36 1;
#X connect 36 0 37 1;
#X connect 37 0 43 0;
#X connect 38 0 42 0;
#X connect 39 0 40 0;
#X connect 40 0 42 1;
#X connect 41 0 40 1;
#X connect 42 0 43 1;
#X connect 43 0 47 0;
#X connect 44 0 46 0;
#X connect 45 0 46 1;
#X connect 46 0 47 1;
#X connect 47 0 48 1;
#X connect 48 0 49 0;
#X connect 49 0 50 0;
#X connect 51 0 19 0;
#X connect 52 0 17 1;
#X connect 53 0 3 0;
#X connect 54 0 1 1;
#X connect 55 0 0 0;
#X connect 56 0 55 0;
#X connect 57 0 23 0;
#X connect 58 0 57 0;
#X restore 478 377 pd drone1;
#X obj 775 486 osc~ 484;
#X obj 783 388 osc~ 5.8;
#X obj 772 417 *~;
#X obj 772 364 sig~ 1;
#X obj 774 439 *~ 30;
#X obj 775 465 +~ 484;
#X obj 972 506 *~ 0.7;
#N canvas 0 87 450 300 drone2 0;
#X obj 328 394 osc~ 484;
#X obj 128 258 phasor~ 616;
#X obj 64 167 osc~ 4.4;
#X obj 96 212 *~;
#X obj 128 167 sig~ 1;
#X obj 256 167 osc~ 1.3;
#X obj 320 167 osc~ 0.6;
#X obj 288 212 *~;
#X obj 192 258 *~;
#X obj 160 303 *~;
#X obj 448 167 osc~ 616;
#X obj 480 212 +~;
#X obj 512 167 sig~ 0;
#X obj 480 258 *~ 0.5;
#X obj 704 167 osc~ 0.6;
#X obj 672 212 *~;
#X obj 640 167 sig~ 1;
#X obj 896 167 osc~ 4.4;
#X obj 864 212 *~;
#X obj 832 167 sig~ 1;
#X obj 768 258 *~;
#X obj 624 303 *~;
#X obj 392 349 +~;
#X obj 392 394 *~ 0.5;
#X obj 360 440 *~;
#X obj 520 394 osc~ 6.8;
#X obj 552 440 *~;
#X obj 584 394 sig~ 1;
#X obj 456 485 *~;
#X obj 520 485 osc~ 220;
#X obj 488 531 +~;
#X obj 488 576 *~ 0.5;
#X obj 552 576 osc~ 7.9;
#X obj 520 622 *~;
#X obj 519 665 outlet~;
#X connect 0 0 24 0;
#X connect 1 0 9 0;
#X connect 2 0 3 0;
#X connect 3 0 8 0;
#X connect 4 0 3 1;
#X connect 5 0 7 0;
#X connect 6 0 7 1;
#X connect 7 0 8 1;
#X connect 8 0 9 1;
#X connect 9 0 22 0;
#X connect 10 0 11 0;
#X connect 11 0 13 0;
#X connect 12 0 11 1;
#X connect 13 0 21 0;
#X connect 14 0 15 1;
#X connect 15 0 20 0;
#X connect 16 0 15 0;
#X connect 17 0 18 1;
#X connect 18 0 20 1;
#X connect 19 0 18 0;
#X connect 20 0 21 1;
#X connect 21 0 22 1;
#X connect 22 0 23 0;
#X connect 23 0 24 1;
#X connect 24 0 28 0;
#X connect 25 0 26 0;
#X connect 26 0 28 1;
#X connect 27 0 26 1;
#X connect 28 0 30 0;
#X connect 29 0 30 1;
#X connect 30 0 31 0;
#X connect 31 0 33 0;
#X connect 32 0 33 1;
#X connect 33 0 34 0;
#X restore 1091 492 pd drone2;
#X obj 1091 526 *~ 0.7;
#X floatatom 769 331 5 0 0 0 - - -, f 5;
#X obj 765 513 *~ 0.5;
#X floatatom 835 343 5 0 0 0 - - -, f 5;
#X obj 833 320;
#X floatatom 1128 197 5 0 0 0 - - -, f 5;
#X obj 682 21 inlet;
#X obj 704 48 sel 0 1;
#X msg 704 70 0;
#X msg 704 70;
#N canvas 0 107 1351 686 player 1;
#X obj 424 126 del;
#X obj 359 -125 inlet;
#X obj 392 174 hsl 128 15 0 3 0 0 empty empty empty -2 -8 0 10 -262144
-1 -1 0 1;
#X text 415 148 background;
#X obj 434 376 dac~;
#X obj 421 105 spigot 1;
#X obj 360 -86 tgl 15 0 empty empty empty 17 7 0 10 -262144 -1 -1 0
1;
#X obj 360 -60 sel 0 1;
#X obj 379 312 *~ 1;
#X obj 456 310 *~ 1;
#X msg 404 -4 open ../sounds/pegasus.wav pegasus;
#X msg 321 -17 0;
#X msg 372 -6 1;
#X obj 372 -33 t b b;
#X obj 366 81 readsf~;
#X connect 0 0 13 0;
#X connect 1 0 6 0;
#X connect 2 0 8 1;
#X connect 2 0 9 1;
#X connect 5 0 0 0;
#X connect 6 0 7 0;
#X connect 7 0 11 0;
#X connect 7 1 13 0;
#X connect 8 0 4 0;
#X connect 9 0 4 1;
#X connect 10 0 14 0;
#X connect 11 0 14 0;
#X connect 12 0 14 0;
#X connect 13 0 12 0;
#X connect 13 1 10 0;
#X connect 14 0 8 0;
#X connect 14 0 9 0;
#X connect 14 1 5 0;
#X restore 625 80 pd player;
#X obj 764 35 tgl 15 0 empty empty empty 17 7 0 10 -262144 -1 -1 0
1;
#X obj 489 613 *~ 0.5;
#X obj 676 255 line;
#X msg 681 203 200 60000;
#X obj 712 225 del 60000;
#X obj 683 173 t b b b;
#X msg 751 179 0 0;
#X obj 751 159 bng 15 250 50 0 empty empty empty 17 7 0 10 -262144
-1 -1;
#X obj 749 91 t b b;
#X obj 750 121 del 20000;
#X msg 841 491 0.5;
#X obj 431 104 loadbang;
#X msg 431 126 0;
#X msg 528 534 0.3;
#X msg 1028 481 0.5;
#X msg 1160 525 0.5;
#X connect 1 0 5 0;
#X connect 2 0 4 0;
#X connect 3 0 4 1;
#X connect 4 0 5 1;
#X connect 5 0 13 0;
#X connect 6 0 27 0;
#X connect 7 0 17 0;
#X connect 8 0 9 1;
#X connect 9 0 11 0;
#X connect 10 0 9 0;
#X connect 11 0 12 0;
#X connect 12 0 7 0;
#X connect 13 0 27 0;
#X connect 14 0 15 0;
#X connect 15 0 27 0;
#X connect 16 0 10 0;
#X connect 17 0 27 0;
#X connect 18 0 8 0;
#X connect 20 0 1 1;
#X connect 21 0 22 0;
#X connect 21 0 25 0;
#X connect 22 0 23 0;
#X connect 22 0 23 0;
#X connect 22 1 34 0;
#X connect 23 0 27 1;
#X connect 23 0 17 1;
#X connect 23 0 13 1;
#X connect 23 0 15 1;
#X connect 26 0 25 0;
#X connect 26 0 22 0;
#X connect 27 0 0 0;
#X connect 27 0 0 1;
#X connect 28 0 16 0;
#X connect 28 0 6 0;
#X connect 29 0 28 0;
#X connect 30 0 31 0;
#X connect 31 0 29 0;
#X connect 31 1 30 0;
#X connect 31 2 32 0;
#X connect 32 0 28 0;
#X connect 33 0 31 0;
#X connect 34 0 35 0;
#X connect 34 1 39 0;
#X connect 34 1 36 0;
#X connect 34 1 40 0;
#X connect 34 1 41 0;
#X connect 35 0 33 0;
#X connect 36 0 17 1;
#X connect 37 0 38 0;
#X connect 38 0 22 0;
#X connect 39 0 27 1;
#X connect 40 0 13 1;
#X connect 41 0 15 1;
