#N canvas 0 82 1351 686 10;
#X obj 917 13 del;
#X obj 852 -238 inlet;
#X obj 885 61 hsl 128 15 0 3 0 0 empty empty empty -2 -8 0 10 -262144
-1 -1 0 1;
#X obj 1015 -125 soundfiler;
#X text 908 35 background;
#X obj 927 263 dac~;
#X obj 914 -8 spigot 1;
#X obj 853 -199 tgl 15 0 empty empty empty 17 7 0 10 -262144 -1 -1
1 1;
#X obj 853 -173 sel 0 1;
#X obj 1012 -183 loadbang;
#X obj 1335 -92 table background;
#X obj 872 198 *~ 0.2;
#X obj 949 197 *~ 0.2;
#X msg 814 -130 0;
#X msg 861 -85 1;
#X obj 885 -123 t b b;
#X msg 911 -84 open ../sounds/sonandosatellites-background.wav;
#X obj 859 -31 readsf~;
#X connect 0 0 15 0;
#X connect 1 0 7 0;
#X connect 2 0 11 1;
#X connect 2 0 12 1;
#X connect 6 0 0 0;
#X connect 7 0 8 0;
#X connect 8 0 13 0;
#X connect 8 1 15 0;
#X connect 11 0 5 0;
#X connect 12 0 5 1;
#X connect 13 0 17 0;
#X connect 14 0 17 0;
#X connect 15 0 14 0;
#X connect 15 1 16 0;
#X connect 16 0 17 0;
#X connect 17 0 11 0;
#X connect 17 0 12 0;
#X connect 17 1 6 0;
