#N canvas 0 107 1351 686 10;
#X obj 690 93 hsl 128 15 0 3 0 0 empty empty empty -2 -8 0 10 -262144
-1 -1 4233 1;
#X obj 1096 -7 soundfiler;
#X text 713 67 background;
#X obj 711 314 dac~;
#X obj 754 229 *~ 1;
#X obj 677 230 *~ 1;
#X floatatom 743 133 5 0 0 0 - - -, f 5;
#X obj 742 2 loadbang;
#X msg 712 -98 bang;
#X obj 764 -253 inlet;
#X obj 764 -225 sel 0 1;
#X msg 764 -197 stop;
#X obj 1150 -148 table msst;
#X obj 711 -66 tabplay~ msst;
#X msg 740 34 1;
#X msg 901 -129 1.5e+07;
#X msg 1097 -32 read -maxsize 1e+08 -resize ../sounds/msst.wav msst
;
#X obj 841 -41 del;
#X obj 289 32 readsf~;
#X obj 1096 -51 r loaded6;
#X connect 0 0 4 1;
#X connect 0 0 5 1;
#X connect 0 0 6 0;
#X connect 4 0 3 1;
#X connect 5 0 3 0;
#X connect 7 0 14 0;
#X connect 8 0 13 0;
#X connect 9 0 10 0;
#X connect 10 0 11 0;
#X connect 10 1 15 0;
#X connect 11 0 13 0;
#X connect 13 0 5 0;
#X connect 13 0 4 0;
#X connect 13 1 17 0;
#X connect 14 0 0 0;
#X connect 15 0 13 0;
#X connect 16 0 1 0;
#X connect 17 0 15 0;
#X connect 19 0 16 0;
